<?xml version="1.0" encoding="UTF-8"?>
<svg width="362" height="250" fill="none" version="1.1" viewBox="0 0 362 250" xml:space="preserve" xmlns="http://www.w3.org/2000/svg"><defs><linearGradient id="paint0_linear_3372_4215" x1="329.04" x2="88.555" y1="111.91" y2="111.91" gradientUnits="userSpaceOnUse"><stop stop-color="#FF00F7" offset="0"/><stop stop-color="#CE2BF8" offset=".14"/><stop stop-color="#866DFA" offset=".38"/><stop stop-color="#4CA2FC" offset=".59"/><stop stop-color="#22C8FD" offset=".77"/><stop stop-color="#09DFFE" offset=".92"/><stop stop-color="#00E8FF" offset="1"/></linearGradient><linearGradient id="paint1_linear_3372_4215" x1="329.04" x2="88.555" y1="71.183" y2="71.183" gradientUnits="userSpaceOnUse"><stop stop-color="#FF00F7" offset="0"/><stop stop-color="#CE2BF8" offset=".14"/><stop stop-color="#866DFA" offset=".38"/><stop stop-color="#4CA2FC" offset=".59"/><stop stop-color="#22C8FD" offset=".77"/><stop stop-color="#09DFFE" offset=".92"/><stop stop-color="#00E8FF" offset="1"/></linearGradient><linearGradient id="paint3_linear_3372_4215" x1="-37.504" x2="148.48" y1="116.2" y2="383.2" gradientUnits="userSpaceOnUse"><stop stop-color="#00E8FF" offset="0"/><stop stop-color="#09DFFE" offset=".08"/><stop stop-color="#22C8FD" offset=".23"/><stop stop-color="#4CA2FC" offset=".41"/><stop stop-color="#866DFA" offset=".62"/><stop stop-color="#CE2BF8" offset=".86"/><stop stop-color="#FF00F7" offset="1"/></linearGradient><linearGradient id="paint4_linear_3372_4215" x1="-5.039" x2="180.95" y1="92.216" y2="359.22" gradientUnits="userSpaceOnUse"><stop stop-color="#00E8FF" offset="0"/><stop stop-color="#09DFFE" offset=".08"/><stop stop-color="#22C8FD" offset=".23"/><stop stop-color="#4CA2FC" offset=".41"/><stop stop-color="#866DFA" offset=".62"/><stop stop-color="#CE2BF8" offset=".86"/><stop stop-color="#FF00F7" offset="1"/></linearGradient><linearGradient id="paint5_linear_3372_4215" x1="26.178" x2="212.17" y1="68.658" y2="335.66" gradientUnits="userSpaceOnUse"><stop stop-color="#00E8FF" offset="0"/><stop stop-color="#09DFFE" offset=".08"/><stop stop-color="#22C8FD" offset=".23"/><stop stop-color="#4CA2FC" offset=".41"/><stop stop-color="#866DFA" offset=".62"/><stop stop-color="#CE2BF8" offset=".86"/><stop stop-color="#FF00F7" offset="1"/></linearGradient><linearGradient id="paint6_linear_3372_4215" x1="72.525" x2="258.52" y1="34.49" y2="301.5" gradientUnits="userSpaceOnUse"><stop stop-color="#00E8FF" offset="0"/><stop stop-color="#09DFFE" offset=".08"/><stop stop-color="#22C8FD" offset=".23"/><stop stop-color="#4CA2FC" offset=".41"/><stop stop-color="#866DFA" offset=".62"/><stop stop-color="#CE2BF8" offset=".86"/><stop stop-color="#FF00F7" offset="1"/></linearGradient><linearGradient id="paint7_linear_3372_4215" x1="125.13" x2="311.12" y1=".33645" y2="267.35" gradientUnits="userSpaceOnUse"><stop stop-color="#00E8FF" offset="0"/><stop stop-color="#09DFFE" offset=".08"/><stop stop-color="#22C8FD" offset=".23"/><stop stop-color="#4CA2FC" offset=".41"/><stop stop-color="#866DFA" offset=".62"/><stop stop-color="#CE2BF8" offset=".86"/><stop stop-color="#FF00F7" offset="1"/></linearGradient><linearGradient id="paint8_linear_3372_4215" x1="178.72" x2="364.71" y1="-34.418" y2="232.59" gradientUnits="userSpaceOnUse"><stop stop-color="#00E8FF" offset="0"/><stop stop-color="#09DFFE" offset=".08"/><stop stop-color="#22C8FD" offset=".23"/><stop stop-color="#4CA2FC" offset=".41"/><stop stop-color="#866DFA" offset=".62"/><stop stop-color="#CE2BF8" offset=".86"/><stop stop-color="#FF00F7" offset="1"/></linearGradient><filter id="filter0_f_3372_4251" x=".5" y="0" width="24" height="28" color-interpolation-filters="sRGB" filterUnits="userSpaceOnUse"><feFlood flood-opacity="0" result="BackgroundImageFix"/><feBlend in="SourceGraphic" in2="BackgroundImageFix" result="shape"/><feGaussianBlur result="effect1_foregroundBlur_3372_4251" stdDeviation="1"/></filter></defs><path d="m336.11 171.94h-107.76c-0.032-0.018-0.05-0.033-0.083-0.051l-0.065 0.051h-140.97c11.905-1.894 23.922-3.506 36.008-4.812 0.331-0.051 0.643-0.083 0.97-0.115l0.676-0.083 0.723-0.083 0.13-0.018 0.774-0.083c4.592-0.489 9.22-0.928 13.845-1.339l1.514-0.129c7.756-0.669 15.541-1.224 23.363-1.681 0.955-9.411 2.437-19.067 4.446-28.705 0.018-0.115 0.051-0.226 0.066-0.359 1.286-6.507 2.75-11.956 2.764-12.021 3.408-13.571 7.771-27.157 12.991-40.401l0.345-0.8818c3.226-8.1407 6.768-16.13 10.571-23.796 6.125-3.131 11.313-4.7613 14.455-5.5603-11.098 20.208-20.663 44.151-27.017 67.623-0.018 0.065-1.776 6.41-3.08 12.427-0.676 3.002-1.301 6.018-1.879 9.037l-0.297 1.515c-1.283 6.932-2.304 13.831-3.03 20.618 13.172-0.586 26.392-0.849 39.611-0.799-0.149-0.471-0.279-0.914-0.41-1.338-0.182-0.637-0.345-1.274-0.509-1.908l-0.396-1.565c-1.533-6.475-2.306-13.341-2.306-20.453 0-3.376 0.181-6.834 0.544-10.26 0.378-0.13 0.756-0.277 1.119-0.425 3.393-1.321 6.703-2.739 9.845-4.225-0.625 3.736-1.282 9.116-1.268 15.284 0.018 5.597 0.56 10.945 1.631 16.001l-0.018 0.065 0.033 0.05c0.28 1.307 0.592 2.61 0.955 3.884l0.149 0.539c0.429 1.516 0.905 3.016 1.432 4.47 18.505 0.328 36.995 1.271 55.334 2.854l2.125 0.194c17.731 1.566 35.314 3.718 52.653 6.475l0.011 4e-3z" fill="url(#paint0_linear_3372_4215)"/><path d="m318.82 25.441s-42.114-0.6838-49.474 22.364l-0.051 0.1296c-1.45 3.8508-2.205 7.8636-2.289 11.923v0.1943l-0.065 1.6951c-0.378 6.9819-2.405 16.864-9.187 27.208-2.62 3.9624-5.747 7.7304-9.384 11.272-5.696 5.564-12.645 10.57-20.761 14.989-1.072 0.587-2.158 1.159-3.226 1.681-3.934 1.99-8.181 3.883-12.66 5.611-7.952 3.084-16.827 5.772-26.41 8.025 0.61-2.854 2.042-8.742 2.634-11.106 23.74-6.183 42.067-15.396 53.754-26.963l0.806-0.8313c2.47-2.5264 4.643-5.1716 6.47-7.9284 4.512-6.7515 7.095-14.028 7.691-21.597v-0.0828c0.345-4.4842-2.06-8.7273-6.107-10.815-3.836-1.9722-8.068-3.4262-12.548-4.3403-3.589-0.7162-7.294-1.0761-11.014-1.0761-4.33 0-8.791 0.4895-13.285 1.4684-10.027 2.2169-15.741 5.2831-16.217 5.5459-0.131 0.0647-0.428 0.1943-0.428 0.1943-7.738 3.6205-17.485 11.581-26.262 20.258l-1.431 1.4504c-4.363 4.405-8.428 8.954-11.839 13.179-14.175 17.631-26.443 31.087-37.537 41.135l-1.384 1.256 1.86-0.18c8.282-0.817 17.074-1.875 26.261-3.149l1.235-0.18c5.333-0.752 10.8-1.565 16.398-2.461 1.203-0.195 2.405-0.393 3.655-0.619-0.745 2.951-1.613 7.021-2.1 9.328l-0.192 0.914-0.099 0.461-1.878 0.288-1.253 0.19c-1.595 0.245-3.171 0.49-4.741 0.72l-1.743 0.277c-19.163 2.854-36.582 4.794-51.894 5.773-5.8599 0.374-11.542 0.605-16.893 0.702l11.658-9.185c0.7084-0.536 1.4171-1.094 2.1251-1.662 14.916-11.942 32.6-30.141 48.519-49.928 1.104-1.3712 2.438-2.9691 3.953-4.7146l0.806-0.8961c7.821-8.8569 20.053-21.057 31.808-28.478l0.578-0.3599c2.042-1.256 4.05-2.3825 6.027-3.293 4.395-2.055 8.874-3.75 13.303-5.0385 0.131-0.0503 0.298-0.0827 0.443-0.1475 1.202-0.3743 2.797-0.7342 4.512-1.0761l0.97-0.1943c4.675-0.8818 9.797-1.5008 9.863-1.5188 1.743-0.1295 3.538-0.1943 5.3-0.1943 4.396 0 8.758 0.4247 12.958 1.274 8.711 1.7599 15.083 4.9593 18.883 7.3382l0.643 0.3923 0.28-0.7018c2.75-7.1259 7.476-13.114 13.699-17.307 6.404-4.3223 14.407-6.7516 23.148-6.9963h2.503c-2.089-1.0761-4.28-1.9578-6.554-2.5444-2.899-0.7666-5.616-1.1409-8.297-1.1409-0.905 0-1.744 0.0504-2.536 0.0972l-1.845 0.1475c-0.676 0.0504-1.301 0.0972-1.925 0.1296l-1.762 0.0648-1.366-0.9609c-0.084-0.0504-5.929-3.9624-14.143-5.0385-1.416-0.1799-2.833-0.2771-4.232-0.2771-5.253 0-10.306 1.3388-15.083 3.9624h-0.033l-0.247 0.1296s0 0.0179-0.018 0.0323c-3.324 1.8607-6.521 4.3727-9.565 7.5038-2.535 2.5948-5.318 5.9849-8.25 10.062-5.253 0.1151-10.077 0.9465-13.564 1.7454 0.33-0.5038 0.657-1.0113 0.988-1.5187l0.559-0.8493c1.776-2.692 3.538-5.204 5.286-7.5037l1.053-1.3712c2.238-2.8863 4.429-5.4488 6.554-7.6153 9.532-9.771 20.416-14.712 32.368-14.712 2.008 0 4.065 0.14756 6.073 0.43907 4.033 0.57222 7.575 1.6483 10.437 2.7891l1.631 0.6694c1.828 0.79896 3.31 1.5835 4.363 2.1845l0.131 0.08278h0.149c24.975-0.29511 38.031 15.054 39.43 19.261l7e-3 0.0144z" fill="url(#paint1_linear_3372_4215)"/><path d="m0 215.92c0-12.873 11.93-17.724 28.968-17.724h6.2847v-2.217c0-6.543-2.0234-10.131-9.0528-10.131-6.0703 0-8.8385 3.059-9.4779 7.81h-14.593c0.95904-13.082 11.396-18.887 25.03-18.887s23.326 5.488 23.326 20.47v35.978h-15.018v-6.647c-3.1968 4.43-8.0937 7.81-16.827 7.81-10.117 0-18.64-4.855-18.64-16.462zm35.252-4.009v-4.642h-5.965c-8.9474 0-14.164 1.9-14.164 7.809 0 4.009 2.4485 6.647 8.0938 6.647 6.815 0 12.035-3.692 12.035-9.814z" fill="url(#paint3_linear_3372_4215)"/><path d="m58.106 160.21c0-4.747 3.8325-8.335 8.7331-8.335s8.8385 3.588 8.8385 8.335-3.8326 8.335-8.8385 8.335-8.7331-3.588-8.7331-8.335zm1.1697 15.828h15.338v55.182h-15.338v-55.182z" fill="url(#paint4_linear_3372_4215)"/><path d="m83.307 176.03h15.443v8.44c2.7685-5.172 8.7335-9.706 17.042-9.706 7.349 0 12.885 3.059 15.548 9.601 4.472-6.647 11.716-9.601 18.745-9.601 10.331 0 18.32 6.434 18.32 21.104v35.344h-15.338v-33.657c0-7.068-3.196-10.235-8.733-10.235-5.965 0-10.756 3.797-10.756 11.29v32.602h-15.338v-33.657c0-7.068-3.302-10.235-8.733-10.235-5.965 0-10.756 3.797-10.756 11.29v32.602h-15.443v-55.182z" fill="url(#paint5_linear_3372_4215)"/><path d="m176.02 176.03h15.443v8.652c3.088-5.276 9.587-9.918 17.786-9.918 13.634 0 24.281 10.023 24.281 28.276v0.846c0 18.253-10.436 28.489-24.281 28.489-8.628 0-14.909-4.222-17.786-9.602v27.222h-15.443v-73.965zm41.857 27.96v-0.846c0-11.185-5.54-16.67-13.314-16.67s-13.634 5.593-13.634 16.67v0.846c0 11.078 5.326 16.462 13.739 16.462 8.414 0 13.205-5.697 13.205-16.462h4e-3z" fill="url(#paint6_linear_3372_4215)"/><path d="m241.16 204.32v-0.846c0-17.408 12.46-28.698 28.648-28.698 14.378 0 27.158 8.336 27.158 28.068v4.222h-40.152c0.425 9.181 5.431 14.457 13.844 14.457 7.135 0 10.651-3.059 11.61-7.702h14.593c-1.809 11.923-11.396 18.57-26.624 18.57-16.827 0-29.077-10.444-29.077-28.068v-3e-3zm40.792-6.647c-0.534-8.335-4.791-12.345-12.14-12.345-6.924 0-11.611 4.539-12.78 12.345h24.92z" fill="url(#paint7_linear_3372_4215)"/><path d="m304.6 204.42v-0.846c0-18.149 10.542-28.805 24.495-28.805 8.948 0 14.484 3.904 17.572 9.497v-33.236h15.337v80.191h-15.337v-9.181c-2.877 5.593-9.692 10.34-17.891 10.34-13.525 0-24.176-9.602-24.176-27.96zm42.496-0.529v-0.846c0-10.973-4.901-16.566-13.314-16.566-8.414 0-13.42 5.802-13.42 16.778v0.846c0 10.973 5.326 16.354 12.995 16.354 8.093 0 13.739-5.381 13.739-16.566z" fill="url(#paint8_linear_3372_4215)"/><path d="m3.8397 149.81h44.705c1.8701 0 3.3756 1.5055 3.3756 3.3756v14.055c0 1.8701-1.5055 3.3756-3.3756 3.3756h-44.705c-1.8701 0-3.3756-1.5055-3.3756-3.3756v-14.055c0-1.8701 1.5055-3.3756 3.3756-3.3756z" fill-rule="evenodd" stroke="#a154f9" stroke-width="1.4136"/><path transform="scale(.94663 1.0564)" d="m14.398 153.56q0 0.87231-0.35539 1.5588-0.34731 0.68654-0.96116 1.1388-0.71077 0.53308-1.5669 0.75924-0.84808 0.22615-2.1565 0.22615h-5.25v-12.027h4.6685q1.4539 0 2.1242 0.0969 0.67846 0.0969 1.3408 0.42808 0.68654 0.34731 1.0177 0.93693 0.33923 0.58154 0.33923 1.3327 0 0.87231-0.46039 1.5427-0.46039 0.66231-1.3004 1.0338v0.0646q1.1792 0.23423 1.8658 0.96923 0.69462 0.73501 0.69462 1.9385zm-3.9739-4.9431q0-0.29885-0.15346-0.5977-0.14538-0.29885-0.525-0.44423-0.33923-0.12923-0.84808-0.13731-0.50077-0.0162-1.4135-0.0162h-0.29077v2.5442h0.48462q0.735 0 1.2519-0.0242t0.81577-0.16154q0.42-0.18577 0.54923-0.47654 0.12923-0.29885 0.12923-0.68654zm0.75923 4.8946q0-0.57346-0.22616-0.88039-0.21808-0.315-0.75116-0.46846-0.36346-0.105-1.0015-0.11308-0.63808-8e-3 -1.3327-8e-3h-0.67846v2.9966h0.22615q1.3085 0 1.8739-8e-3t1.0419-0.21q0.48462-0.20193 0.66231-0.53308 0.18577-0.33923 0.18577-0.77539zm14.224 3.7316h-8.6989v-12.027h8.6989v2.3262h-5.6135v2.0758h5.2096v2.3262h-5.2096v2.9723h5.6135zm12.01-9.7004h-3.7558v9.7004h-3.1016v-9.7004h-3.7558v-2.3262h10.613zm12.98 9.7004h-3.2066l-0.83193-2.4312h-4.4585l-0.83193 2.4312h-3.1258l4.4423-12.027h3.57zm-4.7896-4.6362-1.4781-4.3131-1.4781 4.3131z" fill="#bb3df9" fill-rule="evenodd" stroke-width="0" aria-label="BETA"/><g transform="translate(244.56 9.0009)" fill="none"><g fill="#fff" filter="url(#filter0_f_3372_4251)"><path d="m21.74 11.123c-8.2433-0.7209-8.8576-1.3005-9.6175-9.1231-0.761 7.8226-1.3758 8.4025-9.6227 9.1231 8.2469 0.7172 8.8617 1.3048 9.6227 9.1237 0.7599-7.8189 1.3742-8.4065 9.6175-9.1237z"/><path d="m8.7216 19.043c-0.29037 2.9783-0.52555 3.2009-3.665 3.4762 3.1394 0.2711 3.3746 0.4989 3.665 3.4802 0.28538-2.9815 0.52056-3.2091 3.6639-3.4802-3.1433-0.2753-3.3785-0.4979-3.6639-3.4762z"/><path d="m20.117 17.88c0.1891-1.9354 0.3422-2.078 2.3834-2.2606-2.0409-0.1779-2.1943-0.32-2.3834-2.2559-0.1875 1.9359-0.3411 2.078-2.3823 2.2559 2.0412 0.1826 2.1948 0.3252 2.3823 2.2606z"/></g></g></svg>
