<?xml version="1.0" encoding="UTF-8"?><svg id="Layer_1" xmlns="http://www.w3.org/2000/svg" xmlns:xlink="http://www.w3.org/1999/xlink" viewBox="0 0 3720.22 925.95"><defs><style>.cls-1{fill:url(#linear-gradient-2);}.cls-2{fill:url(#linear-gradient-6);}.cls-3{fill:url(#linear-gradient-5);}.cls-4{fill:url(#linear-gradient-7);}.cls-5{fill:url(#linear-gradient-9);}.cls-6{fill:url(#linear-gradient-3);}.cls-7{fill:url(#linear-gradient);}.cls-8{fill:url(#linear-gradient-4);}.cls-9{fill:url(#linear-gradient-8);}</style><linearGradient id="linear-gradient" x1="845.5" y1="572" x2="-31.77" y2="572" gradientUnits="userSpaceOnUse"><stop offset="0" stop-color="#000"/><stop offset="1" stop-color="#fff"/></linearGradient><linearGradient id="linear-gradient-2" x1="845.5" y1="445.53" x2="-31.77" y2="445.53" xlink:href="#linear-gradient"/><linearGradient id="linear-gradient-3" x1="845.5" y1="285.91" x2="-31.77" y2="285.91" xlink:href="#linear-gradient"/><linearGradient id="linear-gradient-4" x1="714.29" y1="-246.47" x2="2093.52" y2="2955.88" xlink:href="#linear-gradient"/><linearGradient id="linear-gradient-5" x1="998.57" y1="-380.06" x2="2377.8" y2="2822.29" xlink:href="#linear-gradient"/><linearGradient id="linear-gradient-6" x1="1314.41" y1="-529.33" x2="2693.63" y2="2673.02" xlink:href="#linear-gradient"/><linearGradient id="linear-gradient-7" x1="1825.95" y1="-739.43" x2="3205.18" y2="2462.92" xlink:href="#linear-gradient"/><linearGradient id="linear-gradient-8" x1="2283.65" y1="-929.65" x2="3662.88" y2="2272.7" xlink:href="#linear-gradient"/><linearGradient id="linear-gradient-9" x1="2747" y1="-1121.94" x2="4126.23" y2="2080.4" xlink:href="#linear-gradient"/></defs><g><path class="cls-7" d="m885.75,758.42h-331.5c-.1-.05-.15-.1-.25-.15l-.2.15H120.13c36.62-5.88,73.59-10.89,110.77-14.94,1.01-.15,1.98-.25,2.99-.35l2.08-.25,2.23-.25.41-.05,2.38-.25c14.13-1.52,28.36-2.89,42.6-4.15l4.66-.4c23.86-2.08,47.81-3.8,71.87-5.22,2.94-29.23,7.5-59.21,13.68-89.14.05-.35.15-.71.2-1.11,3.95-20.21,8.46-37.13,8.51-37.33,10.48-42.14,23.91-84.33,39.96-125.46l1.06-2.73c9.93-25.27,20.82-50.09,32.52-73.9,18.84-9.73,34.8-14.79,44.47-17.27-34.14,62.76-63.57,137.11-83.12,210-.05.2-5.47,19.91-9.47,38.6-2.08,9.32-4,18.69-5.77,28.06l-.91,4.71c-3.95,21.53-7.09,42.95-9.32,64.02,40.52-1.82,81.19-2.63,121.86-2.48-.46-1.47-.86-2.84-1.27-4.15-.56-1.98-1.06-3.95-1.57-5.93l-1.22-4.86c-4.71-20.11-7.09-41.43-7.09-63.51,0-10.48.56-21.22,1.67-31.86,1.16-.4,2.33-.86,3.44-1.32,10.43-4.1,20.61-8.51,30.29-13.12-1.92,11.6-3.95,28.31-3.9,47.46.05,17.37,1.72,33.99,5.01,49.69l-.05.2.1.15c.86,4.05,1.82,8.1,2.94,12.05l.46,1.67c1.32,4.71,2.79,9.37,4.41,13.88,56.93,1.01,113.81,3.95,170.23,8.86l6.53.61c54.55,4.86,108.64,11.55,161.98,20.11Z"/><path class="cls-1" d="m832.57,303.48s-129.56-2.13-152.2,69.44l-.15.41c-4.46,11.95-6.79,24.41-7.04,37.03v.61l-.2,5.27c-1.16,21.68-7.39,52.37-28.26,84.48-8.05,12.31-17.68,24.01-28.87,35-17.53,17.27-38.9,32.82-63.87,46.55-3.29,1.82-6.63,3.6-9.93,5.22-12.11,6.18-25.17,12.05-38.95,17.42-24.46,9.57-51.76,17.93-81.24,24.92,1.87-8.86,6.28-27.15,8.11-34.49,73.04-19.2,129.41-47.81,165.37-83.73l2.48-2.58c7.6-7.85,14.28-16.06,19.91-24.61,13.88-20.97,21.83-43.56,23.65-67.06v-.25c1.06-13.93-6.33-27.1-18.79-33.58-11.8-6.13-24.82-10.64-38.6-13.47-11.04-2.23-22.44-3.34-33.89-3.34-13.32,0-27.05,1.52-40.87,4.56-30.84,6.89-48.42,16.41-49.89,17.22-.4.2-1.32.61-1.32.61-23.81,11.24-53.79,35.96-80.79,62.91l-4.41,4.51c-13.42,13.68-25.93,27.81-36.42,40.92-43.61,54.75-81.34,96.54-115.48,127.74l-4.26,3.9,5.72-.56c25.48-2.53,52.53-5.83,80.79-9.78l3.8-.56c16.41-2.33,33.23-4.86,50.45-7.65,3.7-.61,7.39-1.22,11.24-1.93-2.29,9.16-4.96,21.8-6.45,28.97l-.59,2.83-.3,1.43-5.78.9-3.86.6c-4.91.76-9.76,1.52-14.58,2.24l-5.37.86c-58.96,8.86-112.54,14.89-159.65,17.93-18.03,1.17-35.51,1.88-51.97,2.18l35.86-28.52c2.18-1.67,4.36-3.39,6.53-5.17,45.89-37.08,100.29-93.6,149.27-155.04,3.39-4.25,7.5-9.22,12.16-14.64l2.48-2.79c24.06-27.5,61.69-65.39,97.86-88.43l1.77-1.11c6.28-3.9,12.46-7.39,18.54-10.23,13.52-6.38,27.3-11.65,40.92-15.65.41-.15.91-.25,1.37-.45,3.7-1.17,8.61-2.28,13.88-3.34l2.99-.61c14.39-2.74,30.14-4.66,30.34-4.71,5.37-.4,10.89-.61,16.31-.61,13.52,0,26.95,1.32,39.86,3.95,26.8,5.47,46.4,15.4,58.1,22.79l1.97,1.22.86-2.18c8.46-22.13,23-40.72,42.14-53.74,19.7-13.42,44.32-20.97,71.22-21.73h7.7c-6.43-3.34-13.17-6.08-20.16-7.9-8.92-2.38-17.27-3.54-25.53-3.54-2.79,0-5.37.15-7.8.3l-5.67.46c-2.08.15-4,.3-5.93.4l-5.42.2-4.2-2.99c-.25-.15-18.23-12.31-43.51-15.65-4.36-.56-8.71-.86-13.02-.86-16.16,0-31.71,4.15-46.4,12.31h-.1l-.76.4q0,.05-.05.1c-10.23,5.77-20.06,13.57-29.43,23.3-7.8,8.05-16.36,18.59-25.38,31.25-16.16.35-31,2.94-41.73,5.42,1.01-1.57,2.03-3.14,3.04-4.71l1.72-2.63c5.47-8.36,10.89-16.16,16.26-23.3l3.24-4.25c6.89-8.97,13.63-16.92,20.16-23.65,29.33-30.34,62.81-45.69,99.58-45.69,6.18,0,12.51.46,18.69,1.37,12.41,1.77,23.3,5.12,32.11,8.66l5.02,2.08c5.62,2.48,10.18,4.91,13.42,6.79l.4.25h.46c76.84-.91,117,46.75,121.31,59.82Z"/><path class="cls-6" d="m642.88,278.61c9.6.09,12.19,6.9,15.01,8.95-4.2,1.51-8.44,4.99-13.46,5.56-8.16.93-19.98-5.61-19.98-5.61,4.03-1.05,8.83-8.99,18.43-8.9Z"/></g><path class="cls-8" d="m857.75,615.4c0-98.43,90.36-135.55,219.46-135.55h47.6v-16.94c0-50.02-15.33-77.46-68.58-77.46-45.99,0-66.97,23.4-71.81,59.7h-110.54c7.26-100.05,86.33-144.42,189.6-144.42s176.69,41.96,176.69,156.52v275.13h-113.76v-50.83c-24.21,33.89-61.32,59.71-127.48,59.71-76.65,0-141.19-37.11-141.19-125.86Zm267.06-30.66v-35.5h-45.18c-67.77,0-107.31,14.52-107.31,59.71,0,30.66,18.56,50.83,61.32,50.83,51.64,0,91.17-28.24,91.17-75.03Z"/><path class="cls-3" d="m1286.89,189.39c0-36.31,29.04-63.74,66.16-63.74s66.97,27.43,66.97,63.74-29.05,63.74-66.97,63.74-66.16-27.43-66.16-63.74Zm8.88,121.02h116.18v421.97h-116.18v-421.97Z"/><path class="cls-2" d="m1466.72,310.42h116.99v64.55c20.98-39.53,66.16-74.23,129.09-74.23,55.67,0,97.63,23.4,117.8,73.42,33.89-50.83,88.75-73.42,142-73.42,78.26,0,138.77,49.22,138.77,161.36v270.29h-116.18v-257.38c0-54.06-24.21-78.26-66.16-78.26-45.18,0-81.49,29.05-81.49,86.33v249.31h-116.18v-257.38c0-54.06-25.01-78.26-66.16-78.26-45.18,0-81.49,29.05-81.49,86.33v249.31h-116.99v-421.97Z"/><path class="cls-4" d="m2213.34,310.42h116.99v66.16c23.4-40.34,72.61-75.84,134.74-75.84,103.27,0,183.96,76.65,183.96,216.23v6.45c0,139.58-79.07,217.84-183.96,217.84-65.35,0-112.96-32.27-134.74-73.42v208.16h-116.99V310.42Zm317.08,213.81v-6.45c0-85.52-41.96-127.48-100.85-127.48s-103.27,42.76-103.27,127.48v6.45c0,84.72,40.34,125.86,104.08,125.86s100.05-43.57,100.05-125.86Z"/><path class="cls-9" d="m2695.73,526.65v-6.45c0-133.13,94.4-219.46,217.04-219.46,108.92,0,205.74,63.74,205.74,214.62v32.27h-304.17c3.23,70.19,41.15,110.54,104.89,110.54,54.06,0,80.68-23.4,87.94-58.9h110.54c-13.72,91.17-86.33,142-201.71,142-127.48,0-220.26-79.88-220.26-214.62Zm309.01-50.83c-4.03-63.74-36.31-94.4-91.98-94.4-52.44,0-87.94,34.69-96.82,94.4h188.8Z"/><path class="cls-5" d="m3165.21,527.45v-6.45c0-138.77,79.88-220.26,185.57-220.26,67.77,0,109.73,29.85,133.13,72.61V119.2h116.18v613.19h-116.18v-70.19c-21.78,42.76-73.42,79.07-135.55,79.07-102.47,0-183.15-73.42-183.15-213.81Zm321.92-4.03v-6.45c0-83.91-37.11-126.67-100.85-126.67s-101.66,44.38-101.66,128.29v6.45c0,83.91,40.34,125.06,98.43,125.06,61.32,0,104.08-41.15,104.08-126.67Z"/></svg>